<?xml version="1.0" encoding="utf-8"?>
<!-- Uploaded to: SVG Repo, www.svgrepo.com, Generator: SVG Repo Mixer Tools -->
<svg width="800px" height="800px" viewBox="0 0 32 32" fill="none" xmlns="http://www.w3.org/2000/svg">
<g clip-path="url(#clip0_901_1638)">
<path d="M19 25H1V30C1 30.553 1.447 31 2 31H30C30.553 31 31 30.553 31 30V2C31 1.447 30.553 1 30 1H2C1.447 1 1 1.447 1 2V22M19 25C19 23.896 19.896 23 21 23C22.104 23 23 23.896 23 25M19 25C19 26.104 19.896 27 21 27C22.104 27 23 26.104 23 25M23 25H28M13 9V17L20 13L13 9Z" stroke="#000000" stroke-width="2" stroke-linecap="round" stroke-linejoin="round"/>
</g>
<defs>
<clipPath id="clip0_901_1638">
<rect width="32" height="32" fill="white"/>
</clipPath>
</defs>
</svg>